<svg id="f4c0d8f2-6ea8-4eb1-8f25-924eba184cda" data-name="Layer 1" xmlns="http://www.w3.org/2000/svg" viewBox="0 0 1809.06467 858.17334"><defs><style>.a9022b1a-8f83-46d4-8613-51c785d6aa35{fill:#fff;}.a1c17127-f409-4848-bec7-44e0f19e80ad{fill:#25836a;}.a6b3ec1e-66a0-4457-bf4c-a143686c6691{fill:#3c9;}.b37b9813-f6e2-4dd0-8fbf-e897314c645e{fill:#c03;}.a40b91d1-ca3f-4bf5-825e-effd5eb3e0a0{fill:#f11a3d;}.a97881e2-7d18-4239-89b5-d3566ef1a3c1{fill:#f4516c;}</style></defs><path class="a9022b1a-8f83-46d4-8613-51c785d6aa35" d="M1552.18506,506.77592c34.40436,6.4508,105.36347-88.16125,129.01646-113.96452,25.80322-27.95355,43.00548-15.05194,27.95363,15.05194-12.90162,30.10383-40.85525,79.56016-23.653,88.16125,36.5546,15.05193,73.10936-40.8552,86.011-64.50823,40.85525-75.2596,40.85525,4.30057,34.40436,43.00549-17.20226,86.01092-15.05186,305.33891-356.94549,279.53561-55.9071-4.30057-148.369-62.358-101.06283-118.26509,47.306-58.05742,219.32791-75.2596,275.23517-27.95355,17.20226,15.05194,10.75137,38.70492-15.05185,25.80331-19.3525-10.75137-51.60662-23.653-107.51372-15.05193-25.80322,4.30056-68.80871,32.25411-34.40435,58.05742S1633.89588,689.54923,1674.751,663.746c79.56008-47.30605,68.80871-133.317,75.25959-144.06839h0c-15.05185,17.20218-36.55459,40.85525-88.16121,34.40436-36.55459-4.30057-30.10387-38.70492-27.95363-58.05742-32.25411,32.25411-58.05734,45.15576-90.31145,45.15576-17.20226,0-36.5546-4.30056-51.60662-19.35246-94.6121,43.00549-150.51919,0-118.26508-90.31153,23.653-66.65851,55.9071-126.86617,70.95912-152.66948,38.705-64.50823,88.16121-32.25411,66.65847,0-25.80323,40.8552-75.2596,101.06286-96.76235,154.81972-32.25411,81.71041,38.705,79.56016,64.50823,68.80879,0-2.15028-2.15024-4.30056-2.15024-6.4508-25.80323-70.959,53.75686-174.17223,131.1667-116.1148,21.50274,32.25411-23.653,83.86068-75.2596,118.26508-2.15024,2.15028-4.30049,2.15028-6.45089,4.30056C1534.983,502.47535,1543.58393,504.62564,1552.18506,506.77592Zm-38.70484-25.80331c34.40436-23.653,62.358-55.90714,47.306-66.65851C1537.13321,394.96164,1498.4282,446.56826,1513.48022,480.97261Z"/><path class="a9022b1a-8f83-46d4-8613-51c785d6aa35" d="M156.65712,625.041c55.90714,36.55468,141.91811-137.61754,96.76234-161.27057C184.61067,425.06551,92.1489,573.43439,87.84835,644.3935c-4.30054,58.05742,40.8552,109.664,107.51369,83.86073,81.71041-32.25411,122.56565-83.86073,154.81977-141.91807,21.50274-34.40435,103.21314-208.57661,73.10931-232.2296-25.80331-19.35246-73.10931,19.35246-62.35794,111.81428,4.30056,36.55468,21.50274,94.6121,30.10383,154.81976,12.90165-32.25411,40.8552-79.56016,70.959-90.31153,94.61206-30.10384-2.15028,144.06839,38.705,129.01645,27.95355-10.75137,36.55468-176.3225,118.26509-191.3744,73.10935-12.90165,68.80879,131.16674,2.15024,174.17222-62.358,40.85525-86.011-30.10387-70.959-90.31153,6.45081-25.80331,47.30605-47.30605,32.25412-21.50274-17.20218,30.10387-4.30057,77.40984,23.653,66.65846,47.30605-19.3525,58.05742-124.71589,8.60113-96.76234-53.75685,27.95355-47.30605,131.1667-90.31153,176.32251-15.05194,15.05193-40.85521,19.3525-47.306,12.90161-23.653-19.3525,23.653-129.01645-10.75137-118.26508-27.95355,8.60113-40.85521,79.56016-53.75686,113.96452-2.15028,6.4508-4.30057,40.85524-4.30057,40.85524l-34.40439,15.05194c-2.15028-73.10936-15.05194-148.369-34.4044-249.43183C320.07789,386.36067,375.985,285.29777,442.6435,276.69668c101.06291-15.05194,64.50823,86.011,27.95355,150.5192C406.0889,539.03,335.12987,719.6531,244.81833,807.81431,120.10242,926.0794-26.11623,818.56568,3.98762,665.89625,23.3401,571.28415,122.25273,390.66112,249.1189,425.06551c105.36343,30.10383,53.75686,148.369,4.30056,204.27606-25.8033,27.95355-75.25959,49.45629-107.51371,19.3525C133.0041,637.94261,139.4549,614.28963,156.65712,625.041Z"/><path class="a9022b1a-8f83-46d4-8613-51c785d6aa35" d="M790.988,483.12289c0-21.50274-10.75138-25.8033-27.95355-19.35246-23.653,6.45081-43.00549,38.70492-38.70492,68.8088,2.15024,17.20217,19.3525,32.25411,49.45629,23.653,55.9071-15.05194,75.2596-113.96452,120.41532-146.21863,88.16121-62.358,129.01646,83.86068,58.05742,150.51919-45.15572,43.00549-109.66395,19.35251-107.51371-53.75685,2.15024-51.60658,36.55468-109.664,92.46178-113.96452,55.9071-6.45081,58.05742,47.30605,107.51371,51.60657,51.60662,4.30057,83.86073-105.36343,77.40984-152.66948-6.45081-51.60657-38.70492-45.15576-68.80879,25.80331-19.3525,45.15577-27.95355,187.07388,27.95355,195.675,47.30605,6.4508,92.46177-161.27057,184.92355-154.81973,60.20774,4.30057,64.50823,126.86618,15.05185,161.27057-23.653,23.653-53.75685,23.653-75.25959,21.50275-58.05743-4.30057-62.358-90.31154-19.35251-139.76783,23.653-25.80331,47.306-17.20218,21.50275,6.45081-30.10388,27.95354-19.3525,70.959,6.45089,75.25959,73.10935,10.75138,81.71048-105.36343,27.95363-94.61205-19.3525,4.30056-45.15573,23.653-77.40984,75.25959-19.35251,30.10384-53.75686,88.16126-79.56017,94.61206s-47.30605-2.15024-62.358-49.45629c-21.50275-66.65851-10.75137-146.21863,6.4508-208.57662,47.30605-169.87165,184.92356-111.81425,154.81968,0-12.90161,51.60658-58.05742,139.76783-107.51371,165.57114-58.05742,27.95355-66.65847-25.80331-113.96452-40.85521-68.80879-23.653-126.86621,94.61206-47.30605,92.46182,55.9071-8.60109,73.10936-113.96452,8.60113-88.16125-62.358,23.653-70.959,113.96456-116.11484,161.27053-62.358,64.50822-131.1667,12.90161-113.96452-79.56017,4.30057-27.95355,38.70492-70.959,73.10936-77.40988,36.55468-6.4508,58.05742,17.20218,49.45629,53.75686C808.1902,498.17483,790.988,500.32511,790.988,483.12289Z"/><path class="a9022b1a-8f83-46d4-8613-51c785d6aa35" d="M1345.75877,394.96164c-30.10388,30.10383-34.40436,81.71041-6.45089,103.21315,10.75137,10.75137,40.85524,8.60109,62.358-4.30057l8.60113,19.35246c-73.10935,58.05738-135.46734,0-116.11484-86.011,2.15024-8.60109,15.05185-34.40439,27.95363-49.45629C1341.45828,356.25672,1365.11127,375.60918,1345.75877,394.96164Z"/><path class="a9022b1a-8f83-46d4-8613-51c785d6aa35" d="M1373.7124,319.702c-34.40436-17.20218-38.705,8.60109-19.3525,19.35246,88.16121,51.60658,156.97008,25.80331,176.32242,6.45081,19.3525-17.20218,4.30048-27.95355-12.90161-23.653C1464.02385,339.05454,1416.71788,341.20478,1373.7124,319.702Z"/><path class="a9022b1a-8f83-46d4-8613-51c785d6aa35" d="M103.18,84.80873c-.18811-.05427-.37463-.10847-.56335-.16325Q86.78921,88.67316,70.716,91.13786,63.75309,72.13271,56.64658,53.01239a339.95627,339.95627,0,0,0,45.343-8.3437q17.80335,4.922,35.18238,8.36793Q153.62912,154.08838,168.3569,244.871a348.59473,348.59473,0,0,1-37.70886-5.03851Q117.3176,164.25495,103.18,84.80873Z"/><path class="a9022b1a-8f83-46d4-8613-51c785d6aa35" d="M222.04245,245.63635q-1.70727-12.08931-3.4491-24.45575,8.95734-10.30353,18.03345-20.89123c31.3512-36.35721,46.953-58.91815,44.84424-80.11569-1.62146-14.94281-10.97327-26.13492-30.61731-25.30922-14.66687.57263-26.51672,8.69384-34.44861,15.80281Q208.62168,94.72547,200.587,78.08614c11.2788-10.35569,30.77343-18.69477,53.87915-19.55782,39.38061-1.56953,62.67212,20.315,65.6167,52.8828,2.79821,30.44359-14.76062,56.90434-35.85376,81.99766q-6.722,7.511-13.37439,14.864c.02124.1741.0415.34842.06189.52243,20.30334-2.25629,40.49865-5.44361,60.69433-9.24979q1.476,15.94116,2.90845,31.36084C297.207,238.25793,259.96286,243.90411,222.04245,245.63635Z"/><path class="a9022b1a-8f83-46d4-8613-51c785d6aa35" d="M402.0333,39.11258a364.38429,364.38429,0,0,1,54.16162-14.11073c34.38232-6.26582,57.13256-3.653,74.264,5.52142,18.78968,9.98776,30.26551,28.30627,29.96131,57.56154-.3291,31.73192-12.625,56.4871-28.673,74.234-17.86535,19.12915-44.76306,33.30352-77.17468,41.82559-19.4043,5.09106-33.384,7.39325-42.49731,8.4158Q407.35739,131.09168,402.0333,39.11258Zm46.13305,135.97708c3.264-.08163,8.74207-1.50333,13.23145-2.67236,34.55981-8.873,57.38745-33.64818,57.13244-74.08966-.20263-35.12181-22.21362-49.97524-57.02575-42.94927a91.29457,91.29457,0,0,0-18.04468,5.34979Q445.88944,119.65489,448.16635,175.08966Z"/><path class="a9022b1a-8f83-46d4-8613-51c785d6aa35" d="M622.10568,119.96515q-6.9884,21.90587-13.74084,44.4469-19.9098,4.07194-39.67566,8.75339c17.92395-59.695,37.2782-118.08077,57.85522-170.72391Q653.76762.45329,681.068,0c16.03076,47.90869,30.87036,96.41583,44.26258,148.1982q-21.13679,1.27311-42.26575,3.85908-5.28552-19.934-10.83423-39.40309C655.4808,114.59621,638.76376,117.07137,622.10568,119.96515ZM668.04343,86.7697q-4.56537-15.93163-9.29529-31.6911c-2.70911-8.82118-5.34509-19.87882-7.59754-28.69329-.17846.01347-.3601.02673-.5393.04026-3.14612,9.21458-6.38147,21.12159-9.71936,30.47868q-6.07507,17.1331-12.0011,34.88921Q648.42672,88.85609,668.04343,86.7697Z"/><path class="a9022b1a-8f83-46d4-8613-51c785d6aa35" d="M763.7291,147.06464q3.3294-31.80339,6.52307-61.56743c-15.5669-29.34915-31.96289-57.423-49.07178-85.23474Q745.048.95613,768.84653,2.95432q7.55127,16.66569,14.79895,33.756c4.493,10.36949,7.61169,18.07634,10.75793,27.54306q.26423.02291.52832.04643c5.00171-8.328,10.21436-15.81929,16.75745-24.6772q11.10956-14.92207,22.37512-28.57065,23.00281,3.81177,45.74,9.0454a654.45457,654.45457,0,0,0-69.64612,67.19915q-3.75531,29.52453-7.6842,61.19316Q783.16788,147.09245,763.7291,147.06464Z"/><path class="a9022b1a-8f83-46d4-8613-51c785d6aa35" d="M875.99985,124.80276A160.39443,160.39443,0,0,0,916.5936,145.132c17.17773,5.6,27.20556,3.5139,28.97558-5.22837,1.63721-8.21981-5.08374-16.433-24.24035-28.91467-26.48474-17.25186-43.70447-33.78808-40.60852-52.93115C884.17416,35.98666,912.87192,25.3,953.70468,40.08884c19.79761,7.36413,32.989,16.57071,42.09522,25.04905q-6.79065,9.4956-13.5011,19.09883a102.939,102.939,0,0,0-33.75562-21.04827c-16.785-6.30448-26.17688-2.86353-27.35144,3.60347-1.55713,8.3564,7.36963,14.67906,28.01844,29.70823,27.835,20.61406,37.94482,40.05068,33.95458,57.94107-4.96752,21.659-28.61816,29.3945-73.4884,15.81659-18.7279-5.65619-36.84289-14.2792-45.66211-20.67006Q869.98661,136.91139,875.99985,124.80276Z"/><path class="a9022b1a-8f83-46d4-8613-51c785d6aa35" d="M761.08261,323.38681c0,24.89893-17.25,46.19824-42.14844,46.19824-18.44921,0-29.84863-12.74951-29.84863-30.14892,0-24.749,17.249-46.19776,42.14844-46.19776C750.88242,293.23837,761.08261,307.33749,761.08261,323.38681Zm-53.99805,15.59961c0,10.04932,5.25,17.09912,14.249,17.09912,13.0498,0,21.749-17.999,21.749-32.54834,0-7.5-3.44922-16.7998-13.94922-16.7998C715.18417,306.7374,707.08456,325.337,707.08456,338.98642Z"/><path class="a9022b1a-8f83-46d4-8613-51c785d6aa35" d="M770.83456,367.93515l11.25-59.54736H772.485l2.70019-13.49951h9.44922l.75-3.75c1.65039-9.29981,5.25-18.44922,12.14941-24.59913,5.25-4.6499,12.44922-6.74951,19.19922-6.74951,5.09961,0,8.7002.8999,10.79981,1.94971L824.233,275.68906a16.89126,16.89126,0,0,0-7.0498-1.3501c-8.39942,0-12.89942,7.6499-14.54981,16.94922l-.59961,3.6001H817.1832l-2.54981,13.49951H799.484l-11.25,59.54736Z"/><path class="a1c17127-f409-4848-bec7-44e0f19e80ad" d="M576.55371,214.25208c12.50405,12.36851,16.05705,30.124,4.807,24.02207,11.25006,6.10189,18.06585,22.49573,9.22137,22.1799,8.84448.31583,23.09906,16.3151,19.28561,21.64608,3.81345-5.331,17.88645,8.37254,19.03994,18.54005-1.15349-10.16751,16.6685-3.93132,24.11211,8.4372-7.44361-12.36852,6.89432-27.09476,19.39837-19.92374-12.50405-7.171-19.30375-24.728-9.1996-23.75357-10.10415-.97444-23.37144-15.50548-17.94986-19.65965-5.42158,4.15417-21.796-9.66789-22.15359-18.70043.35762,9.03254-16.21246,2.65716-22.41833-8.62552C606.90259,229.69715,589.05776,226.62059,576.55371,214.25208Z"/><path class="a6b3ec1e-66a0-4457-bf4c-a143686c6691" d="M597.5637,236.39792,627.616,262.54118l30.43475,26.51565-3.49795,2.82746s-2.478,3.8205-2.4672,3.80939L624.5005,265.741Z"/><path class="a1c17127-f409-4848-bec7-44e0f19e80ad" d="M557.54242,354.364c15.569-5.82734,32.97067-.82115,23.54342,6.77308,9.42725-7.59423,27.11947-6.11159,23.93653,2.00592,3.18294-8.11751,23.94411-13.42257,28.08865-7.17743-4.14454-6.24514,14.49432-12.44422,25.21728-8.387-10.723-4.05724,3.00751-17.01824,18.57652-17.53547-15.569.51723-22.0566-18.98532-8.77733-26.38581-13.27927,7.40049-31.99708,5.36891-25.3241-2.74861-6.673,8.11752-25.67641,13.22066-25.71051,6.90426.0341,6.3164-19.7679,14.50484-26.791,11.07846,7.02305,3.42638-6.25558,15.21158-17.9652,15.94469C584.04635,334.103,573.11143,348.53667,557.54242,354.364Z"/><path class="a6b3ec1e-66a0-4457-bf4c-a143686c6691" d="M586.286,345.68091l37.03163-14.672,37.53815-14.84051.90315,4.40618s2.2539,3.95686,2.249,3.94215l-39.28063,10.72986Z"/><path class="a1c17127-f409-4848-bec7-44e0f19e80ad" d="M713.72282,189.044c-5.3627,15.6482.1066,32.9099,7.39965,23.35407-7.293,9.55583-5.33828,27.20213,2.64469,23.8744-7.983,3.32773-12.73148,24.22322-6.42446,28.27037-6.307-4.04715-12.00592,14.75067-7.71028,25.43234-4.29564-10.68167-16.8852,3.39017-17.03293,19.03837.14773-15.6482-19.52118-21.61245-26.61088-8.06928,7.0897-13.54317,4.55878-32.2-3.42419-25.24162,7.983-6.9584,12.5766-26.09138,6.21491-25.88579,6.36169-.20559,14.01817-20.21929,10.35877-27.07737,3.6594,6.85808,15.08564-6.73066,15.459-18.38476C694.22374,216.00884,708.36012,204.69221,713.72282,189.044Z"/><path class="a6b3ec1e-66a0-4457-bf4c-a143686c6691" d="M705.834,217.97385,692.1566,255.38424l-13.83235,37.92123,4.42874.78511s4.01566,2.14738,4.00083,2.14289l9.67661-39.55327Z"/><circle class="b37b9813-f6e2-4dd0-8fbf-e897314c645e" cx="671.72986" cy="330.35866" r="18.14989"/><circle class="a40b91d1-ca3f-4bf5-825e-effd5eb3e0a0" cx="671.76456" cy="332.95614" r="14.82606"/><ellipse class="a97881e2-7d18-4239-89b5-d3566ef1a3c1" cx="672.63623" cy="335.69707" rx="10.40885" ry="10.36512" transform="translate(-37.11661 583.45284) rotate(-45.76545)"/><circle class="b37b9813-f6e2-4dd0-8fbf-e897314c645e" cx="661.23984" cy="297.28278" r="18.14989"/><circle class="a40b91d1-ca3f-4bf5-825e-effd5eb3e0a0" cx="661.27455" cy="299.88026" r="14.82606"/><ellipse class="a97881e2-7d18-4239-89b5-d3566ef1a3c1" cx="662.14622" cy="302.62119" rx="10.40885" ry="10.36512" transform="translate(-16.59028 565.93462) rotate(-45.76545)"/><circle class="b37b9813-f6e2-4dd0-8fbf-e897314c645e" cx="695.15876" cy="302.49214" r="18.14989"/><circle class="a40b91d1-ca3f-4bf5-825e-effd5eb3e0a0" cx="695.19347" cy="305.08962" r="14.82606"/><ellipse class="a97881e2-7d18-4239-89b5-d3566ef1a3c1" cx="696.06514" cy="307.83055" rx="10.40885" ry="10.36512" transform="translate(-10.06556 591.81251) rotate(-45.76545)"/></svg>