<svg id="Layer_1" data-name="Layer 1" xmlns="http://www.w3.org/2000/svg" xmlns:xlink="http://www.w3.org/1999/xlink" viewBox="0 0 2923 2793"><defs><style>.cls-1{fill:none;}.cls-2{fill:#924716;}.cls-3{fill:#793812;}.cls-4{fill:#9f5326;}.cls-5{fill:#80b5e3;}.cls-11,.cls-6{fill:#fff;}.cls-6,.cls-7{opacity:0.2;}.cls-6{isolation:isolate;}.cls-8{fill:#342565;}.cls-9{fill:#36bc98;}.cls-10{fill:#25836a;}.cls-11{opacity:0.9;}.cls-12{fill:#f11a3d;}.cls-13{fill:#d50d2f;}.cls-14{fill:#f4516c;}.cls-15{clip-path:url(#clip-path);}.cls-16{clip-path:url(#clip-path-2);}.cls-17{clip-path:url(#clip-path-3);}.cls-18{clip-path:url(#clip-path-4);}</style><clipPath id="clip-path"><rect class="cls-1" x="360" y="274" width="181" height="181"/></clipPath><clipPath id="clip-path-2"><rect class="cls-1" y="179" width="360" height="383"/></clipPath><clipPath id="clip-path-3"><rect class="cls-1" x="89" y="327" width="261" height="283"/></clipPath><clipPath id="clip-path-4"><rect class="cls-1" x="89" y="327" width="261" height="307"/></clipPath></defs><polygon class="cls-2" points="2523.42 2644.68 541.15 2644.68 541.15 273.39 2523.42 273.39 2523.42 807.38 2523.42 2644.68"/><polygon class="cls-3" points="2523.42 273.52 2523.42 2644.68 2351.38 2644.68 2351.38 418.33 2523.42 273.52"/><polygon class="cls-4" points="2324.76 417.53 342.76 417.53 342.76 273.39 2496.71 273.39 2324.76 417.53"/><polygon class="cls-5" points="2522.93 2644.68 359.81 2644.68 359.81 273.39 794.25 273.39 1165.33 563.01 1527.36 418.2 1753.62 698.77 2179.01 626.37 2350.97 1151.31 2522.93 1821.06 2785.4 2092.58 2649.64 2318.85 2894.01 2753.28 2522.93 2644.68"/><polygon class="cls-5" points="359.81 2643.93 359.81 272.78 24.96 182.28 196.91 562.38 24.96 861.04 196.91 1159.7 24.96 1458.36 196.91 1747.96 24.96 2046.62 196.91 2345.28 24.96 2752.53 359.81 2643.93"/><polygon class="cls-6" points="965.51 417.53 515.08 417.53 343.92 273.39 776.33 273.39 965.51 417.53"/><path class="cls-2" d="M1681.91,1422.15c-63.35,54.31-226.25,172-398.2,208.16-208.16,45.25-325.81-126.7-280.56-289.61,45.25-190,253.4-334.85,434.41-271.5,81.45,27.15,54.3,135.75,27.15,190-72.4,135.75,27.15,153.85,72.4,108.6,135.75-144.8,217.21-389.16-18.1-479.66C1157,752.44,858.35,1087.3,758.79,1358.8,604.94,1793.21,976,2173.32,1401.36,1883.71c108.6-72.4,235.3-199.1,316.75-307.7C1790.52,1467.41,1745.27,1367.85,1681.91,1422.15Z"/><ellipse class="cls-2" cx="2055.02" cy="1224.84" rx="144.8" ry="99.55" transform="translate(-264.11 1812.19) rotate(-45.01)"/><ellipse class="cls-2" cx="2004.9" cy="1611.35" rx="144.8" ry="99.55" transform="translate(-552.14 1890) rotate(-45.01)"/><polygon class="cls-6" points="541.15 2491.96 359.81 2646.09 359.81 270.62 541.15 415.69 541.15 2491.96"/><g class="cls-7"><polygon class="cls-8" points="2523.58 2643.13 360.58 2643.13 541.59 2489.69 2351.63 2489.69 2523.58 2643.13"/><polygon class="cls-8" points="2523.42 2644.28 2351.38 2490.36 2351.38 1150.3 2523.42 1820.33 2523.42 2644.28"/></g><path class="cls-9" d="M942.88,449.34c-73,22.87-144.77-101.48-87.75-152-57,50.5-173.19-33.9-142-103.16-31.21,69.26-171.66,39.41-171.66-36.48,0,75.89-140.44,105.74-171.66,36.48,31.22,69.26-84.95,153.66-142,103.16,57,50.5-14.77,174.85-87.75,152,73,22.87,58,165.67-18.35,174.53C198.08,615,242.45,751.57,176,790.78c66.45-39.21,162.53,67.5,117.42,130.41,45.11-62.91,176.28-4.51,160.33,71.38,15.95-75.89,159.54-75.89,175.49,0-16-75.89,115.22-134.29,160.32-71.38-45.1-62.91,51-169.62,117.43-130.41C840.54,751.57,884.91,615,961.22,623.87,884.91,615,869.9,472.21,942.88,449.34ZM815,736.24c-49.76-29.36-121.71,50.55-87.93,97.67-33.78-47.12-132-3.39-120.06,53.45-11.95-56.84-119.48-56.84-131.42,0,11.94-56.84-86.29-100.57-120.06-53.45,33.77-47.12-38.17-127-87.94-97.67,49.77-29.36,16.54-131.62-40.61-125,57.15-6.63,68.39-113.57,13.74-130.7,54.65,17.13,108.41-76,65.71-113.81,42.7,37.82,129.69-25.38,106.32-77.25,23.37,51.87,128.55,29.51,128.55-27.32,0,56.83,105.17,79.19,128.55,27.32-23.38,51.87,63.61,115.07,106.32,77.25-42.71,37.82,11.06,130.94,65.71,113.81-54.65,17.13-43.42,124.07,13.73,130.7C798.48,604.62,765.26,706.88,815,736.24Z"/><path class="cls-10" d="M1052.52,414.38c-93,29.15-184.45-129.29-111.8-193.64-72.65,64.35-220.66-43.18-180.89-131.43-39.77,88.25-218.71,50.21-218.71-46.49,0,96.7-178.95,134.74-218.72,46.49,39.77,88.25-108.24,195.78-180.89,131.43,72.65,64.35-18.82,222.79-111.8,193.64,93,29.15,73.86,211.09-23.37,222.38,97.23-11.29,153.76,162.7,69.09,212.65,84.67-49.95,207.09,86,149.62,166.17,57.47-80.17,224.59-5.76,204.27,90.94,20.32-96.7,203.27-96.7,223.6,0-20.33-96.7,146.8-171.11,204.26-90.94-57.46-80.17,65-216.12,149.62-166.17-84.67-49.95-28.14-223.94,69.1-212.65C978.66,625.47,959.54,443.53,1052.52,414.38ZM906.78,790.73c-66.45-39.21-162.53,67.5-117.43,130.42-45.1-62.92-176.27-4.52-160.32,71.38-15.95-75.9-159.54-75.9-175.49,0,15.95-75.9-115.22-134.3-160.33-71.38,45.11-62.92-51-169.63-117.42-130.42,66.45-39.21,22.08-175.77-54.24-166.91,76.32-8.86,91.33-151.66,18.35-174.53,73,22.87,144.77-101.47,87.75-152,57,50.51,173.18-33.89,142-103.16,31.21,69.27,171.66,39.41,171.66-36.48,0,75.89,140.45,105.75,171.66,36.48-31.21,69.27,85,153.67,142,103.16-57,50.51,14.77,174.85,87.75,152-73,22.87-58,165.67,18.34,174.53C884.7,615,840.33,751.52,906.78,790.73Z"/><circle class="cls-11" cx="825.38" cy="316.59" r="43"/><circle class="cls-11" cx="772.38" cy="896.59" r="43"/><path class="cls-12" d="M510.07,124.08C486,78.07,451.38,39.39,400.32,49A94,94,0,0,0,325.2,158.7C334.76,209.75,411,248.4,462.78,245,546.11,239.39,533.54,168.89,510.07,124.08Z"/><path class="cls-13" d="M497.33,137.09c-18.33-35-43.18-50.52-82-43.24s-63.87,35.33-56.6,74.17,97,64.21,135.48,55C543.42,211.32,515.19,171.18,497.33,137.09Z"/><path class="cls-12" d="M572.44,124.07c24.09-46,58.69-84.69,109.74-75.13a94.05,94.05,0,0,1,75.13,109.75c-9.56,51.05-85.76,89.7-137.58,86.25C536.4,239.38,549,168.88,572.44,124.07Z"/><path class="cls-13" d="M585.17,137.08c18.33-35,43.19-50.52,82-43.24s63.87,35.33,56.6,74.17-97,64.21-135.49,55C539.08,211.31,567.32,171.17,585.17,137.08Z"/><path class="cls-14" d="M578.68,201c0,35.62-2.49,49.84-38.11,49.84S501.72,236.59,501.72,201s3.22-49.84,38.85-49.84S578.68,165.35,578.68,201Z"/><circle class="cls-11" cx="261.38" cy="327.59" r="43"/><circle class="cls-11" cx="923.38" cy="620.59" r="43"/><circle class="cls-11" cx="324.38" cy="902.59" r="43"/><circle class="cls-11" cx="159.93" cy="620.17" r="43"/><g class="cls-15"><polygon class="cls-2" points="2523.04 2645.34 540.77 2645.34 540.77 274.05 2523.04 274.05 2523.04 808.05 2523.04 2645.34"/><polygon class="cls-3" points="2523.04 274.19 2523.04 2645.34 2351.01 2645.34 2351.01 418.99 2523.04 274.19"/><polygon class="cls-4" points="2324.38 418.19 342.39 418.19 342.39 274.05 2496.34 274.05 2324.38 418.19"/><polygon class="cls-5" points="2522.55 2645.34 359.44 2645.34 359.44 274.05 793.87 274.05 1164.95 563.68 1526.98 418.87 1753.24 699.44 2178.63 627.03 2350.59 1151.97 2522.55 1821.72 2785.03 2093.25 2649.26 2319.51 2893.63 2753.95 2522.55 2645.34"/><polygon class="cls-5" points="359.44 2644.6 359.44 273.44 24.58 182.94 196.53 563.05 24.58 861.71 196.53 1160.36 24.58 1459.02 196.53 1748.63 24.58 2047.28 196.53 2345.94 24.58 2753.2 359.44 2644.6"/><polygon class="cls-6" points="965.13 418.19 514.7 418.19 343.54 274.05 775.95 274.05 965.13 418.19"/><path class="cls-2" d="M1681.54,1422.82c-63.36,54.3-226.26,172-398.21,208.15-208.16,45.25-325.81-126.7-280.56-289.6,45.25-190.06,253.41-334.86,434.41-271.51,81.45,27.15,54.3,135.75,27.15,190.06-72.4,135.75,27.15,153.85,72.4,108.6,135.75-144.81,217.21-389.16-18.1-479.66C1156.62,753.1,858,1088,758.41,1359.47,604.56,1793.88,975.62,2174,1401,1884.38c108.6-72.4,235.3-199.11,316.76-307.71C1790.14,1468.07,1744.89,1368.52,1681.54,1422.82Z"/><ellipse class="cls-2" cx="2054.64" cy="1225.51" rx="144.8" ry="99.55" transform="translate(-264.69 1812.12) rotate(-45.01)"/><ellipse class="cls-2" cx="2004.52" cy="1612.02" rx="144.8" ry="99.55" transform="translate(-552.72 1889.92) rotate(-45.01)"/><polygon class="cls-6" points="540.77 2492.62 359.44 2646.76 359.44 271.28 540.77 416.35 540.77 2492.62"/><g class="cls-7"><polygon class="cls-8" points="2523.2 2643.79 360.21 2643.79 541.21 2490.35 2351.25 2490.35 2523.2 2643.79"/><polygon class="cls-8" points="2523.04 2644.95 2351.01 2491.02 2351.01 1150.96 2523.04 1820.99 2523.04 2644.95"/></g></g><g class="cls-16"><polygon class="cls-2" points="2523.48 2641.83 541.21 2641.83 541.21 270.54 2523.48 270.54 2523.48 804.53 2523.48 2641.83"/><polygon class="cls-3" points="2523.48 270.67 2523.48 2641.83 2351.44 2641.83 2351.44 415.48 2523.48 270.67"/><polygon class="cls-4" points="2324.82 414.68 342.82 414.68 342.82 270.54 2496.77 270.54 2324.82 414.68"/><polygon class="cls-5" points="2522.99 2641.83 359.87 2641.83 359.87 270.54 794.31 270.54 1165.39 560.16 1527.41 415.35 1753.68 695.92 2179.07 623.52 2351.03 1148.46 2522.99 1818.21 2785.46 2089.73 2649.7 2316 2894.07 2750.43 2522.99 2641.83"/><polygon class="cls-5" points="359.87 2641.08 359.87 269.93 25.02 179.43 196.97 559.54 25.02 858.19 196.97 1156.85 25.02 1455.51 196.97 1745.11 25.02 2043.77 196.97 2342.43 25.02 2749.68 359.87 2641.08"/><polygon class="cls-6" points="965.57 414.68 515.14 414.68 343.98 270.54 776.39 270.54 965.57 414.68"/><path class="cls-2" d="M1682,1419.31c-63.35,54.3-226.25,172-398.21,208.15-208.15,45.25-325.8-126.7-280.55-289.61,45.25-190,253.4-334.85,434.41-271.5,81.45,27.15,54.3,135.75,27.15,190.05-72.4,135.75,27.15,153.86,72.4,108.6,135.75-144.8,217.21-389.15-18.1-479.66-362-135.75-660.66,199.11-760.22,470.61C605,1790.36,976.06,2170.47,1401.42,1880.87c108.6-72.41,235.3-199.11,316.75-307.71C1790.58,1464.56,1745.33,1365,1682,1419.31Z"/><ellipse class="cls-2" cx="2055.08" cy="1221.99" rx="144.8" ry="99.55" transform="translate(-262.08 1811.4) rotate(-45.01)"/><ellipse class="cls-2" cx="2004.96" cy="1608.5" rx="144.8" ry="99.55" transform="translate(-550.1 1889.2) rotate(-45.01)"/><polygon class="cls-6" points="541.21 2489.11 359.87 2643.24 359.87 267.77 541.21 412.84 541.21 2489.11"/><g class="cls-7"><polygon class="cls-8" points="2523.64 2640.28 360.64 2640.28 541.65 2486.84 2351.69 2486.84 2523.64 2640.28"/><polygon class="cls-8" points="2523.48 2641.43 2351.44 2487.51 2351.44 1147.45 2523.48 1817.48 2523.48 2641.43"/></g></g><g class="cls-17"><g class="cls-18"><polygon class="cls-2" points="2545.73 2692.19 563.46 2692.19 563.46 320.91 2545.73 320.91 2545.73 854.9 2545.73 2692.19"/><polygon class="cls-3" points="2545.73 321.04 2545.73 2692.19 2373.69 2692.19 2373.69 465.84 2545.73 321.04"/><polygon class="cls-4" points="2347.07 465.04 365.07 465.04 365.07 320.91 2519.02 320.91 2347.07 465.04"/><polygon class="cls-5" points="2545.24 2692.19 382.12 2692.19 382.12 320.91 816.56 320.91 1187.64 610.53 1549.66 465.72 1775.93 746.29 2201.32 673.88 2373.28 1198.83 2545.24 1868.58 2807.71 2140.1 2671.95 2366.37 2916.32 2800.8 2545.24 2692.19"/><polygon class="cls-5" points="382.12 2691.45 382.12 320.3 47.27 229.79 219.22 609.9 47.27 908.56 219.22 1207.22 47.27 1505.87 219.22 1795.48 47.27 2094.14 219.22 2392.79 47.27 2800.05 382.12 2691.45"/><polygon class="cls-6" points="987.82 465.04 537.39 465.04 366.23 320.91 798.64 320.91 987.82 465.04"/><path class="cls-2" d="M1704.22,1469.67c-63.35,54.3-226.25,172-398.21,208.16-208.15,45.25-325.8-126.71-280.55-289.61,45.25-190,253.4-334.86,434.41-271.51,81.45,27.16,54.3,135.76,27.15,190.06-72.4,135.75,27.15,153.85,72.4,108.6,135.75-144.8,217.21-389.16-18.1-479.66-362-135.75-660.66,199.11-760.22,470.61-153.85,434.41,217.21,814.52,642.57,524.91,108.6-72.4,235.3-199.1,316.75-307.7C1812.83,1514.92,1767.58,1415.37,1704.22,1469.67Z"/><ellipse class="cls-2" cx="2077.33" cy="1272.36" rx="144.8" ry="99.55" transform="translate(-291.18 1841.89) rotate(-45.01)"/><ellipse class="cls-2" cx="2027.21" cy="1658.87" rx="144.8" ry="99.55" transform="translate(-579.2 1919.7) rotate(-45.01)"/><polygon class="cls-6" points="563.46 2539.48 382.12 2693.61 382.12 318.14 563.46 463.2 563.46 2539.48"/><g class="cls-7"><polygon class="cls-8" points="2545.89 2690.64 382.89 2690.64 563.9 2537.21 2373.94 2537.21 2545.89 2690.64"/><polygon class="cls-8" points="2545.73 2691.8 2373.69 2537.88 2373.69 1197.82 2545.73 1867.85 2545.73 2691.8"/></g></g></g></svg>