<?xml version="1.0" encoding="utf-8"?>
<!-- Generator: Adobe Illustrator 18.0.0, SVG Export Plug-In . SVG Version: 6.00 Build 0)  -->
<!DOCTYPE svg PUBLIC "-//W3C//DTD SVG 1.0//EN" "http://www.w3.org/TR/2001/REC-SVG-20010904/DTD/svg10.dtd">
<svg version="1.0" id="Layer_1" xmlns="http://www.w3.org/2000/svg" xmlns:xlink="http://www.w3.org/1999/xlink" x="0px" y="0px"
	 viewBox="0 0 595.3 734.6" enable-background="new 0 0 595.3 734.6" xml:space="preserve">
<path fill="#35677B" d="M595.3-11.7c-4,0.5-8,0.8-12,1.4c-9.5,1.3-19,2.7-28.5,4.1c-2.9,0.4-3.1,0.6-2.5,3.6
	c2.3,11.5,4.6,23.1,7,34.6c1.6,7.6,3.2,15.1,4.9,22.7c2.4,11.1,4.9,22.2,7.4,33.2c2.3,10.3,4.2,20.6,5.1,31.1c0.6,7,1.2,14,1.2,21
	c-0.1,12.1-2,23.9-7.2,34.9c-1.7,3.6-3.7,7.2-6.1,10.4c-6.4,8.7-13.1,17.2-19.6,25.9c-2.7,3.5-5.1,7.2-7.6,10.9
	c-5,7.4-11.2,13.6-18.3,19.1c-4.6,3.6-9.4,6.8-14.5,9.4c-6.1,3.2-12.5,5.9-18.9,8.4c-14.3,5.5-29.1,9.3-44.1,12
	c-13.5,2.4-27.1,4.3-40.6,6.4c-1.7,0.3-3.5,0.3-5.2,0.6c-2.1,0.4-2.4,0.9-2,3c0.6,2.9,1.4,5.8,1.8,8.8c2,12.4,4.1,24.8,5.8,37.3
	c1.5,11.7,1.9,23.4,1.3,35.2c-0.6,13.6-2.7,27.1-6.9,40.1c-2.8,8.4-6.2,16.6-10.9,24.2c-4.3,6.9-9.2,13.2-14,19.6
	c-5.9,7.8-11.5,15.8-17.4,23.7c-3.2,4.3-6.7,8.3-10.1,12.4c-1.8,2.1-3.7,4.1-5.6,6.2c-0.4,0.5-0.8,0.9-1.3,1.3
	c-6.5,5.1-12.8,10.5-19.6,15.1c-8.1,5.4-16.5,10.1-25.4,14.1c-8.6,3.9-17.3,7.2-26.2,10.2c-6.2,2-12.4,3.7-18.7,5.5
	c-3.9,1.1-4,1-3.9,5.3c0.1,3.3,0.6,6.6,0.5,9.9c-0.2,7-0.8,14-1.1,21c-0.5,10-2.1,19.9-4.3,29.7c-2.3,10.3-5.5,20.3-9.6,30
	c-4.3,10.2-9.5,19.9-15.7,29.1c-3.5,5.2-7.5,10.1-11.2,15.2c-4.3,5.8-8.9,11.4-13,17.3c-5.6,8.1-11.7,15.6-18.4,22.9
	c-6.1,6.6-12.7,12.6-19.6,18.4c-0.5,0.4-0.8,0.9-1.2,1.4c-27.5,0-54.9,0-82.4,0c-0.3-4.8-1.5-10.4-2.9-12.8
	c-1.8,1.4-3.5,2.8-5.3,4.2c-3.5,2.8-7,5.7-10.4,8.6c-14.2,0-28.5,0-42.7,0c1.3-1.1,2.5-2.4,3.9-3.4c14.7-10.7,29.3-21.4,44-32.1
	c0.9-0.7,1.7-1.6,2.7-2.1c2.9-1.3,2.9-3.4,2.3-6.1c-3.1-14.6-6-29.3-9.1-43.9c-0.9-4-2.3-7.9-3.8-11.8c-4-10.4-8.1-20.8-12.2-31.1
	c-2.9-7.4-6.2-14.6-9-22.1c-2-5.2-3.5-10.6-3.3-16.3c0.1-3.3,1.2-6.2,3.3-8.8c3-3.8,5.7-7.8,8.5-11.8c4.6-6.7,9-13.6,13.6-20.3
	c3-4.4,7.4-6.9,12.3-8.4c7.4-2.3,15-3.7,22.8-4.2c8.1-0.6,16.2-1.2,24.4-1.2c6.1,0,12.2-0.3,18.2-0.6c9.4-0.5,18.7-1.2,28.1-1.7
	c4.5-0.3,9.1-0.4,13.6-0.7c1.8-0.1,3.7-0.6,5.3-1.3c8.7-3.8,17.3-7.7,26-11.6c2.1-0.9,4.1-2,6.2-2.9c1.6-0.7,2.2-1.7,1.7-3.4
	c-0.5-1.6-0.7-3.2-1.1-4.8c-4.6-17.7-9.1-35.4-13.7-53c-2.8-10.8-6.2-21.4-8.9-32.2c-2.1-8.4-3.8-16.9-5.1-25.5
	c-1.3-8.6-1.6-17.3-0.1-25.9c1.5-8.5,4.2-16.5,9.6-23.5c5.5-7.1,10.5-14.6,15.6-21.9c3.5-5,6.7-10.2,10.3-15.1
	c5-6.8,11.5-12,18.8-16.3c10.9-6.5,22.7-10.7,34.8-14.2c10.2-2.9,20.6-5.1,31.1-6.7c8.6-1.4,17.1-2.8,25.7-4
	c6.3-0.9,12.7-1.4,19-2.1c2.7-0.3,5.3-0.4,8-0.8c3.1-0.4,3.6-1,2.9-4c-1.9-9-4.1-17.9-5.8-26.9c-2-10.6-3.8-21.3-5.3-32.1
	c-0.9-6.2-1-12.5-1.4-18.8c-0.3-4.6-0.7-9.3-0.6-13.9c0.3-14.8,2.1-29.4,6.6-43.6c2.6-8.3,5.8-16.6,10.8-23.9
	c5.1-7.6,10.4-15.1,15.5-22.7c5.2-7.7,10.5-15.3,15.7-23c5.5-8.2,11.8-15.7,18.9-22.4c7.5-7,15.4-13.4,24.2-18.7
	c6.7-4,13.3-8.3,20.3-11.7c9.4-4.5,19-8.6,28.7-12.3c9.5-3.6,19.2-6.9,29.2-9.2c0.7-0.2,1.4-0.4,2.1-0.7c1.4-0.4,1.8-1.3,1.8-2.8
	c-0.2-4.7-0.3-9.5-0.4-14.2c27.9,0,55.7,0,83.6,0C595.3-42.6,595.3-27.1,595.3-11.7z M545.8,163.5c-0.2-4.5-0.6-8.9-0.6-13.4
	c0-3-0.8-5.4-3.2-7.3c-2.6-2.1-5.1-4.2-7.6-6.4c-5.6-4.8-11.2-9.7-16.8-14.5c-4.6-4-9.3-7.9-13.9-11.8c-5.5-4.7-10.8-9.5-16.3-14.2
	c-6.5-5.6-13-11.1-19.5-16.6c-6.6-5.7-13.2-11.5-19.8-17.2c-5.5-4.7-11-9.4-16.4-14.1c-4.6-4-9.2-7.9-13.8-11.9
	c-1.6-1.4-3.2-1.7-5-0.4c-5.4,3.6-11,7-16.3,10.7c-3.9,2.7-7.4,6-11.1,8.8c-2.9,2.2-5,4.9-6.2,8.3c-1.6,4.6-3.3,9.1-4.7,13.8
	c-1.1,3.5-1.8,7.2-2.6,10.8c-0.6,2.6,0,4.5,2.5,6c3.7,2.2,7.2,4.7,10.8,7.2c9,6.1,17.9,12.2,26.9,18.3c8,5.4,16.1,10.8,24.2,16.2
	c8.2,5.5,16.3,11.2,24.6,16.7c13.4,9.1,26.9,18.1,40.3,27.1c9.9,6.7,19.8,13.4,29.7,20.2c0.9,0.6,1.7,1.3,2.6,1.6
	c0.9,0.3,2.1,0.6,2.9,0.2c2.5-1.2,4.5-2.8,5.4-5.9C544.5,185,545.3,174.3,545.8,163.5z M369.7,107.3c-0.2,0.5-0.4,0.9-0.4,1.3
	c-0.2,3.5-0.7,7-0.6,10.5c0.1,9.6,0,19.2,0.7,28.7c0.7,9.8,2.1,19.5,3.4,29.2c0.6,4.4,1.4,8.7,2.2,13.1c0.3,1.8,1.2,3.2,2.8,4.2
	c8.4,5.6,16.8,11.2,25.3,16.8c9.5,6.3,19.1,12.6,28.7,18.9c2.1,1.4,4.2,2,6.7,1.5c5.2-1,10.3-1.9,15.5-2.8c11.8-2,23.5-4.4,35.1-7.6
	c9.6-2.7,19-5.7,28.1-9.6c1.2-0.5,2.6-0.8,3.3-2.4c-49.8-33.9-99.5-67.7-149.2-101.5C370.9,107.4,370.3,107.4,369.7,107.3z
	 M203.6,327.7c0.1,0,0.2,0,0.3,0c0,0.5,0.1,1,0,1.5c-0.4,2.5,0.7,4.4,2.7,5.8c0.4,0.3,0.8,0.6,1.2,0.9c11,8.3,22.1,16.6,33.1,25
	c10.3,7.9,20.6,15.8,31,23.7c14.9,11.4,29.9,22.6,44.9,34c12.8,9.7,25.6,19.5,38.4,29.2c1.8,1.4,2.4,1.3,3.6-0.7
	c0.3-0.5,0.6-1.1,0.9-1.6c3.7-7.1,5.8-14.8,8-22.4c2.5-8.8,3.6-17.8,4.6-26.8c0.4-3.1-0.7-5.1-3.6-6.7c-14-8.1-27.9-16.4-41.8-24.7
	c-9.9-5.9-19.8-11.9-29.7-17.8c-16.4-9.8-32.8-19.4-49.2-29.2c-6.4-3.8-12.7-7.6-19.1-11.5c-1.6-0.9-3.1-1.7-4.9-0.8
	c-5.7,2.7-11.3,5.4-16.9,8.3c-0.9,0.4-1.7,1.7-1.8,2.6C204.5,320.1,204.1,323.9,203.6,327.7z M344.4,459.2
	c-3.3-3.4-137.3-105.3-139.5-106.1c0.2,1.5,0.2,3,0.5,4.4c1.5,8.2,2.9,16.4,4.7,24.6c2.7,12.2,5.8,24.3,8.8,36.4
	c0.3,1.4,1,2.7,1.7,3.9c2.9,4.6,5.9,9.2,8.9,13.8c4.9,7.5,9.8,15,14.7,22.5c6.9,10.6,13.8,21.3,20.7,31.9c1.8,2.7,2,2.8,5.1,1.9
	c7.5-2.2,15.1-4.3,22.5-6.8c17.6-5.8,34.1-14,49.5-24.3C342.9,460.8,343.5,460,344.4,459.2z M63.8,550.7c-4.4,0.5-8.3,0.9-12.2,1.4
	c-1.1,0.1-1.8,0.7-1.6,1.9c0.6,2.8,1.1,5.7,3.4,7.8c2.1,1.8,4.2,3.7,6.3,5.5c5.4,4.6,10.8,9.3,16.2,13.9c5.3,4.6,10.6,9.2,15.8,13.8
	c4.4,3.9,8.9,7.7,13.3,11.6c3.9,3.4,7.7,6.8,11.6,10.2c5,4.3,10.1,8.5,15.1,12.8c7.2,6.3,14.4,12.7,21.6,19
	c7.5,6.6,15.1,13.1,22.6,19.6c3.3,2.9,6.7,5.8,10,8.7c1.7,1.4,2.5,1.4,3.8-0.4c0.8-1.1,1.6-2.2,2.1-3.4c2.8-6,5.7-11.9,8.3-18
	c5.5-13,9.1-26.5,11.6-40.4c0.5-2.9,0.4-3.2-2.2-4.2c-4.3-1.8-8.6-3.6-12.8-5.4c-7.9-3.2-15.9-6.4-23.8-9.7c-14-5.8-28-11.6-42-17.4
	c-8.1-3.3-16.3-6.6-24.4-9.9c-13.3-5.5-26.5-11-39.7-16.4C65.8,551.1,64.6,550.9,63.8,550.7z M517.1,0.4c-1.8,0.3-3,0.4-4.2,0.6
	c-9.2,2.1-18.5,4.2-27.7,6.5c-16.8,4.2-33.2,9.7-49.2,16.5c-1.2,0.5-2.2,1.3-3.9,2.2c36.4,31.9,72.4,63.3,108.9,95.1
	c0.1-1.6,0.3-2.3,0.1-3.1c-0.4-2.9-0.9-5.7-1.4-8.5c-2.6-12.7-5.2-25.5-7.9-38.2c-2-9.6-4.2-19.1-6.2-28.7c-2.5-12-4.9-24-7.4-36.1
	C518,4.8,517.6,2.8,517.1,0.4z M372.7,375.4c0.1-1.2,0.2-2.1,0.2-3c-0.2-5-0.3-10.1-0.6-15.1c-0.6-7.6-1-15.2-2.1-22.8
	c-1.8-12-4-24-6-36c-0.3-1.9-1.2-3.1-3.1-3.8c-8.5-3-16.9-6.1-25.4-9c-1.7-0.6-3.7-0.9-5.4-0.7c-11.8,1.3-23.5,2.7-35.3,4.4
	c-14.2,2-28.4,4-42.3,7.5c-2.2,0.5-4.3,1.1-6.7,1.7C247.9,300.6,368.7,373.9,372.7,375.4z M96.5,733.2c0.4,0.1,0.8,0.2,1,0.1
	c0.8-0.2,1.6-0.4,2.4-0.7c9.1-3,18-6.7,26.6-10.8c13.1-6.2,25.5-13.5,37.2-22c2.2-1.6,4.3-3.2,6.3-4.9c1.5-1.3,1.5-1.9,0.3-3.3
	c-0.6-0.7-1.3-1.3-2-2c-5.4-4.8-10.8-9.6-16.2-14.3c-7.8-6.8-15.5-13.5-23.3-20.3c-6.4-5.6-12.7-11.1-19.1-16.7
	c-6.7-5.9-13.5-11.8-20.3-17.7c-7-6.2-14.1-12.4-21.1-18.6c-0.4-0.3-0.9-0.5-1.8-0.9c0.3,1.1,0.4,1.8,0.6,2.5
	c1.8,4.7,3.7,9.4,5.4,14.2c4.6,12.5,8.8,25.1,12.2,38c3.6,13.5,6.7,27,8.5,40.8c0.8,6.4,1.5,12.9,2.1,19.3
	c0.4,5.2,0.5,10.5,0.7,15.7C96.2,732.3,96.4,732.7,96.5,733.2z M115.4,549.4c0.7,0.4,1.1,0.6,1.5,0.7c14.3,5.8,28.7,11.6,43,17.4
	c10.4,4.2,20.8,8.4,31.3,12.6c6.9,2.8,13.8,5.5,20.7,8.2c2.4,0.9,3,0.5,3.1-2c0-0.3,0-0.6,0-0.9c0-13.1,0.2-26.2-1.1-39.2
	c-0.5-5.6-1.1-4.5-5.4-4c-5.7,0.7-11.4,1.6-17.2,2.2c-5.2,0.6-10.5,1-15.7,1.4c-6,0.6-12.1,1.3-18.1,1.6c-8.1,0.4-16.3,0.5-24.4,0.7
	c-5.6,0.2-11.1,0.4-16.7,0.7C116.2,548.9,116,549.1,115.4,549.4z M415.9,234.6c0.1-0.2,0.1-0.4,0.2-0.6c-6.2-4.3-12.3-8.6-18.5-12.8
	c-6.2-4.1-12.1-8.6-18.9-12.7c0,1.2-0.1,1.8,0,2.4c1.7,8.4,3.5,16.7,5.3,25.1c0.5,2.3,1.1,2.6,3.5,2.3c4.7-0.6,9.4-1.1,14.1-1.7
	C406.4,236,411.2,235.3,415.9,234.6z M236.2,485.2c-0.3,0.3-0.6,0.5-0.6,0.6c0.8,4,1.5,8,2.4,12c0.1,0.6,1.2,1.3,1.8,1.3
	c1.3-0.1,2.6-0.6,4.4-1C241.3,493.5,238.8,489.4,236.2,485.2z"/>
</svg>
