<svg id="Layer_1" data-name="Layer 1" xmlns="http://www.w3.org/2000/svg" viewBox="0 0 166.22 174.1"><defs><style>.cls-1{fill:#25836a;}.cls-2{fill:#3c9;}.cls-3{fill:#c03;}.cls-4{fill:#f11a3d;}.cls-5{fill:#f4516c;}</style></defs><path class="cls-1" d="M19,25.21c12.51,12.37,16.06,30.12,4.81,24,11.25,6.1,18.06,22.5,9.22,22.18,8.84.32,23.1,16.32,19.29,21.65,3.81-5.33,17.88,8.37,19,18.54C70.21,101.43,88,107.66,95.48,120c-7.45-12.37,6.89-27.09,19.4-19.92-12.51-7.17-19.31-24.73-9.2-23.75-10.11-1-23.38-15.51-18-19.66C82.3,60.85,65.93,47,65.57,38c.36,9-16.21,2.65-22.42-8.63C49.36,40.65,31.52,37.58,19,25.21Z"/><path class="cls-2" d="M40,47.35l30,26.15L100.51,100,97,102.84l-2.47,3.81L67,76.7Z"/><path class="cls-1" d="M0,165.32c15.57-5.83,33-.82,23.54,6.77,9.43-7.59,27.12-6.11,23.94,2,3.18-8.12,23.94-13.42,28.09-7.18-4.15-6.24,14.49-12.44,25.22-8.39-10.73-4.05,3-17,18.57-17.53-15.57.52-22-19-8.77-26.39-13.28,7.4-32,5.37-25.33-2.75-6.67,8.12-25.68,13.23-25.71,6.91,0,6.32-19.77,14.5-26.79,11.08,7,3.42-6.26,15.21-18,15.94C26.5,145.06,15.57,159.49,0,165.32Z"/><path class="cls-2" d="M28.74,156.64l37-14.68,37.53-14.84.91,4.41s2.25,4,2.25,3.94L67.18,146.2Z"/><path class="cls-1" d="M156.18,0c-5.36,15.65.11,32.91,7.4,23.35-7.29,9.56-5.34,27.21,2.64,23.88-8,3.33-12.73,24.22-6.42,28.27-6.31-4-12,14.75-7.71,25.43-4.3-10.68-16.89,3.39-17,19,.14-15.65-19.52-21.61-26.61-8.07C115.54,98.36,113,79.7,105,86.66c8-7,12.58-26.09,6.22-25.89,6.36-.2,14-20.22,10.36-27.07,3.66,6.85,15.08-6.74,15.45-18.39C136.68,27,150.82,15.65,156.18,0Z"/><path class="cls-2" d="M148.29,28.93,134.61,66.34l-13.83,37.92,4.43.79s4,2.14,4,2.14l9.68-39.55Z"/><circle class="cls-3" cx="114.19" cy="141.31" r="18.15"/><circle class="cls-4" cx="114.22" cy="143.91" r="14.83"/><ellipse class="cls-5" cx="115.09" cy="146.65" rx="10.41" ry="10.37" transform="translate(-70.27 126.81) rotate(-45.77)"/><circle class="cls-3" cx="103.7" cy="108.24" r="18.15"/><circle class="cls-4" cx="103.73" cy="110.84" r="14.83"/><ellipse class="cls-5" cx="104.6" cy="113.58" rx="10.41" ry="10.37" transform="translate(-49.74 109.29) rotate(-45.77)"/><circle class="cls-3" cx="137.62" cy="113.45" r="18.15"/><circle class="cls-4" cx="137.65" cy="116.05" r="14.83"/><ellipse class="cls-5" cx="138.52" cy="118.79" rx="10.41" ry="10.37" transform="translate(-43.22 135.17) rotate(-45.77)"/></svg>